<?xml version="1.0" standalone="no"?><!DOCTYPE svg PUBLIC "-//W3C//DTD SVG 1.1//EN" "http://www.w3.org/Graphics/SVG/1.1/DTD/svg11.dtd"><svg t="1580363830019" class="icon" viewBox="0 0 1024 1024" version="1.1" xmlns="http://www.w3.org/2000/svg" p-id="1655" xmlns:xlink="http://www.w3.org/1999/xlink" width="200" height="200"><defs><style type="text/css"></style></defs><path d="M687.5 672.3c-43.2 0-78.2 35.4-78.2 79.1 0 43.7 35 79.1 78.2 79.1s78.2-35.4 78.2-79.1c0-43.7-35-79.1-78.2-79.1z m0 118.7c-21.6 0-39.1-17.7-39.1-39.5s17.5-39.5 39.1-39.5 39.1 17.7 39.1 39.5-17.5 39.5-39.1 39.5zM936 484.9L550.5 95.1c-21.3-21.5-55.8-21.5-77.1 0L88 484.9c-21.3 21.5-21.3 56.4 0 78h111.3v327c0 21.8 17.5 39.5 39.1 39.5h279.7c-12.3-12-23.5-25.2-33.1-39.5H238.4V524H111.3l400.9-405.4L913 524H793.2c22.6 9.8 43.5 23 62 38.8H936c21.3-21.5 21.3-56.4 0-77.9zM863.5 702h-17.1c-7.4-24.5-20.4-46.5-37.2-64.8l8.7-15.2c8.1-14.2 3.3-32.3-10.7-40.5l-33.9-19.8c-14-8.2-32-3.3-40.1 10.9l-8.6 15.1c-11.9-2.7-24.3-4.3-37-4.3s-25.1 1.6-37 4.3l-8.6-15.1c-8.1-14.2-26-19-40.1-10.9L568 581.5c-14 8.2-18.8 26.3-10.7 40.5l8.7 15.2c-17 18.3-30 40.3-37.4 64.8h-17.1c-16.2 0-29.3 13.3-29.3 29.7v39.5c0 16.4 13.1 29.7 29.3 29.7h17.1c7.4 24.5 20.4 46.5 37.2 64.8l-8.7 15.2c-8.1 14.2-3.3 32.3 10.7 40.5l33.9 19.8c14 8.2 32 3.3 40.1-10.9l8.6-15.1c11.9 2.7 24.3 4.3 37 4.3 12.8 0 25.1-1.6 37-4.3l8.6 15.1c8.1 14.2 26 19 40.1 10.9l33.9-19.8c14-8.2 18.8-26.3 10.7-40.5l-8.7-15.2c16.8-18.3 29.8-40.3 37.2-64.8h17.1c16.2 0 29.3-13.3 29.3-29.7v-39.5c0.2-16.4-13-29.7-29.1-29.7z m-9.8 59.3h-39.6c-3 39.9-23.9 74.7-54.8 96.1L779 892l-16.9 9.9-19.8-34.7c-16.6 8.1-35.2 12.7-54.8 12.7-19.7 0-38.2-4.6-54.8-12.7l-19.8 34.7L596 892l19.8-34.6C585 836 564 801.2 561 761.3h-39.6v-19.8H561c3-39.9 24-74.7 54.8-96.1L596 610.8l16.9-9.9 19.8 34.7c16.6-8.1 35.2-12.7 54.8-12.7 19.7 0 38.2 4.6 54.8 12.7l19.8-34.7 16.9 9.9-19.8 34.6c30.8 21.4 51.8 56.2 54.8 96.1h39.6v19.8z" p-id="1656"></path></svg>