<?xml version="1.0" standalone="no"?><!DOCTYPE svg PUBLIC "-//W3C//DTD SVG 1.1//EN" "http://www.w3.org/Graphics/SVG/1.1/DTD/svg11.dtd"><svg t="1589962438703" class="icon" viewBox="0 0 1024 1024" version="1.1" xmlns="http://www.w3.org/2000/svg" p-id="4005" xmlns:xlink="http://www.w3.org/1999/xlink" width="200" height="200"><defs><style type="text/css"></style></defs><path d="M289.555745 110.421902c-17.251919 0-31.229259 13.978363-31.229259 31.229259l0 31.229259c0 17.251919 13.978363 31.229259 31.229259 31.229259 17.251919 0 31.229259-13.978363 31.229259-31.229259l0-31.229259C320.785004 124.400265 306.807664 110.421902 289.555745 110.421902z" p-id="4006"></path><path d="M476.933343 110.421902c-17.251919 0-31.229259 13.978363-31.229259 31.229259l0 31.229259c0 17.251919 13.978363 31.229259 31.229259 31.229259 17.251919 0 31.229259-13.978363 31.229259-31.229259l0-31.229259C508.163625 124.400265 494.185262 110.421902 476.933343 110.421902z" p-id="4007"></path><path d="M960.069969 427.445232c0-65.295122-52.66957-118.4129-117.405967-118.4129s-117.405967 53.116755-117.405967 118.4129c0 53.714366 35.68371 99.116415 84.376713 113.550149l0 234.734162c0 42.147936-28.362978 77.748758-61.930491 77.748758L481.103316 853.478302c-24.12342 0-46.437635-16.590863-54.265928-40.348963-7.772011-23.597441-8.42488-60.792575-8.132214-85.180008l119.753431 0c68.355831 0 122.6719-52.710502 138.38886-134.291542 0.172939-0.925069 0.304945-1.860371 0.406253-2.795673l31.564903-315.26529c0.101307-1.036609 0.152473-2.074242 0.152473-3.110851 0-79.924307-55.302537-140.198066-128.649032-140.198066-17.251919 0-31.229259 13.978363-31.229259 31.229259s13.978363 31.229259 31.229259 31.229259c44.892443 0 65.651232 39.261189 66.180282 76.28543l-31.249725 312.133973C607.516424 621.451808 582.935586 665.48979 538.459628 665.48979L235.332796 665.48979c-41.934065 0-70.744227-41.903366-76.722382-81.58104l-31.321356-312.87587c0.529049-37.024242 21.287839-76.28543 66.180282-76.28543 17.251919 0 31.229259-13.978363 31.229259-31.229259s-13.978363-31.229259-31.229259-31.229259c-73.346495 0-128.649032 60.273758-128.649032 140.198066 0 1.036609 0.051165 2.074242 0.152473 3.110851l31.55467 315.26529c0.051165 0.457418 0.101307 0.914836 0.172939 1.362021 9.769504 67.451228 60.527538 135.725194 138.632407 135.725194L356.237447 727.950354c-0.354064 28.901237 0.568958 72.197322 11.271718 104.719017 16.417925 49.802266 62.062498 83.268472 113.594151 83.268472l266.600941 0c68.589145 0 124.390032-62.896492 124.390032-140.208299L872.094288 541.930683C922.607752 528.706497 960.069969 482.465337 960.069969 427.445232zM842.664002 483.388359c-30.293957 0-54.946426-25.099654-54.946426-55.943127 0-30.853705 24.65247-55.95336 54.946426-55.95336 30.293957 0 54.946426 25.099654 54.946426 55.95336C897.610428 458.288704 872.957959 483.388359 842.664002 483.388359z" p-id="4008"></path><path d="M352.015286 547.636638l0 52.049446c0 17.251919 13.978363 31.229259 31.229259 31.229259 17.251919 0 31.229259-13.978363 31.229259-31.229259l0-52.049446c0-17.251919-13.978363-31.229259-31.229259-31.229259C365.992625 516.40738 352.015286 530.385742 352.015286 547.636638z" p-id="4009"></path><path d="M296.794613 290.957675c11.208273 18.044982 41.96988 48.582485 86.140892 48.582485 43.957141 0 75.095325-30.30419 86.567611-48.217165 9.219989-14.394848 5.03262-33.354666-9.240455-42.747593-14.267958-9.403161-33.57263-5.408173-43.153846 8.752338-0.132006 0.193405-13.612019 19.751856-34.172287 19.751856-19.99131 0-32.42448-18.105357-33.262568-19.36607-9.174963-14.425547-28.281113-18.817578-42.828434-9.759271C292.188712 257.054517 287.691281 276.309046 296.794613 290.957675z" p-id="4010"></path></svg>