<?xml version="1.0" standalone="no"?><!DOCTYPE svg PUBLIC "-//W3C//DTD SVG 1.1//EN" "http://www.w3.org/Graphics/SVG/1.1/DTD/svg11.dtd"><svg t="1589958951939" class="icon" viewBox="0 0 1024 1024" version="1.1" xmlns="http://www.w3.org/2000/svg" p-id="2672" xmlns:xlink="http://www.w3.org/1999/xlink" width="200" height="200"><defs><style type="text/css"></style></defs><path d="M879.665731 144.966673c-107.327424-107.327424-281.937231-107.327424-389.264655 0L324.875159 310.49259l-38.772049-38.765909c-12.196787-12.196787-31.974225-12.196787-44.150546 0-12.196787 12.196787-12.196787 31.963992 0 44.150546l38.772049 38.765909L145.286967 490.080781c-107.327424 107.317191-107.327424 281.947464 0 389.264655 53.6632 53.6632 124.148531 80.495312 194.632839 80.495312s140.968615-26.832112 194.632839-80.495312L669.991314 743.905744l35.592636 35.592636c6.097882 6.097882 14.086833 9.147334 22.075785 9.147334 7.988951 0 15.97688-3.049452 22.075785-9.147334 12.196787-12.186554 12.196787-31.963992 0-44.150546l-35.592636-35.592636 165.523871-165.523871C986.993155 426.914136 986.993155 252.283864 879.665731 144.966673zM654.78703 670.809959c-2.889817 1.458211-5.65479 3.25616-8.069793 5.671163-2.416026 2.413979-4.214998 5.179976-5.674233 8.072863l-150.640905 150.641929c-82.975806 82.975806-217.98878 82.975806-300.963563 0s-82.975806-217.98878 0-300.963563l345.114109-345.114109c41.487903-41.487903 95.985098-62.231343 150.482293-62.231343s108.99439 20.74344 150.482293 62.231343c82.975806 82.975806 82.975806 217.98878 0 300.963563L654.78703 670.809959z" p-id="2673"></path><path d="M414.266072 399.87941c-12.196787-12.196787-31.954783-12.196787-44.150546 0-12.196787 12.186554-12.196787 31.963992 0 44.150546l207.316719 207.316719c6.097882 6.097882 14.086833 9.147334 22.075785 9.147334 7.988951 0 15.97688-3.049452 22.075785-9.147334 12.196787-12.186554 12.196787-31.963992 0-44.150546L414.266072 399.87941z" p-id="2674"></path><path d="M625.576755 287.053762c7.988951 0 15.97688-3.049452 22.075785-9.147334l22.847357-22.847357c12.196787-12.186554 12.196787-31.963992 0-44.150546-12.196787-12.196787-31.954783-12.196787-44.150546 0l-22.847357 22.847357c-12.196787 12.186554-12.196787 31.963992 0 44.150546C609.599875 284.004309 617.587803 287.053762 625.576755 287.053762z" p-id="2675"></path><path d="M778.711458 363.259374l-22.857591 22.847357c-12.196787 12.196787-12.196787 31.963992-0.010233 44.160779 6.097882 6.097882 14.097066 9.147334 22.084994 9.147334s15.97688-3.049452 22.075785-9.137101l22.857591-22.847357c12.196787-12.196787 12.196787-31.963992 0.010233-44.160779C810.67545 351.073844 790.907221 351.084077 778.711458 363.259374z" p-id="2676"></path><path d="M662.457734 419.21478c-0.230244 0.042979-23.586185 4.340865-38.121226-10.194176-14.132882-14.132882-10.122545-35.721573-9.824763-37.205367 3.711532-16.683984-6.690376-33.296337-23.378453-37.176714-16.791431-3.927449-33.583886 6.504134-37.503149 23.295566-4.833075 20.679995-4.675486 64.015989 26.550703 95.242178 31.075763 31.075763 74.512041 31.664164 95.285157 27.112498 16.695241-3.65832 27.137057-20.022009 23.687492-36.753065C695.714162 426.800549 679.242002 415.97704 662.457734 419.21478z" p-id="2677"></path></svg>