<?xml version="1.0" standalone="no"?><!DOCTYPE svg PUBLIC "-//W3C//DTD SVG 1.1//EN" "http://www.w3.org/Graphics/SVG/1.1/DTD/svg11.dtd"><svg t="1581310679589" class="icon" viewBox="0 0 1204 1024" version="1.1" xmlns="http://www.w3.org/2000/svg" p-id="8189" xmlns:xlink="http://www.w3.org/1999/xlink" width="235.15625" height="200"><defs><style type="text/css"></style></defs><path d="M1201.72 642.188c0-96.142-130.792-171.455-291.05-171.455-10.666 0-23.491 0.382-33.833 1.034V191.226c1.492-7.107 0.936-14.32 0.936-21.692C877.773 74.794 756.167 0.577 595.908 0.577c-160.263 0-285.784 74.217-285.784 168.957 0 7.372 1.013 14.587 2.499 21.692v76.927c-9.044-0.485-18.208-0.79-27.525-0.79-160.258 0-283.445 74.205-283.445 168.936 0 7.393-1.326 14.607 0.167 21.713v392.927h1.948c5.029 89.563 126.602 158.988 281.33 158.988 154.61 0 283.943-69.312 289.15-158.989h1.944v-16.366c9.151 0.533 10.299 1.389 19.716 1.389 10.695 0 21.14-0.453 31.475-1.128v4.622h2.085l-0.605 10.706c0 92.356 125.622 172.793 285.99 172.793 160.39 0 286.005-73.435 286.005-167.363l-0.312-10.66h1.797V664.212c1.518-7.214-0.624-14.523-0.624-22.025zM914.852 525.24c140.99 0 239.24 61.632 239.24 116.948 0 55.31-98.25 116.943-239.24 116.943-140.981 0-239.233-61.633-239.233-116.943 0-55.316 98.252-116.948 239.233-116.948z m241.784 212.809v29.584c-13.481 59.228-120.639 108.745-241.787 108.745-121.059 0-228.207-49.483-241.773-108.65v-29.679c51.518 45.897 139.685 75.589 241.773 75.589 102.106 0 190.269-29.69 241.787-75.589zM595.908 499.507c-9.298 0-10.644-0.402-19.718-0.984v-40.511c0.925-4.398 1.55-8.845 1.984-13.338 8.392 0.504 9.074 0.809 17.735 0.809 101.54 0 184.818-29.97 234.336-75.882v22.757c-13.29 58.339-114.981 107.15-234.337 107.15zM834.16 476.82c-4.136 0.663-8.306 1.256-12.366 2.015 4.193-3.302 8.597-6.507 12.366-10v7.985zM595.908 54.3c138.922 0 231.818 60.726 231.818 115.234 0 54.495-92.896 115.22-231.82 115.22-138.926 0-235.736-60.726-235.736-115.22 0-54.508 96.81-115.235 235.738-115.235z m-238.25 209.68c4.315 3.849 9.242 7.41 14.072 11.017-4.595-0.843-9.374-1.435-14.071-2.141v-8.877z m-72.56 57.087c138.927 0 239.651 60.74 239.651 115.235 0 54.513-100.724 115.22-239.651 115.22-138.922 0-235.732-60.707-235.732-115.22 0-54.494 96.81-115.235 235.732-115.235z m-238.25 209.7c50.78 45.222 137.647 74.48 238.25 74.48 100.602 0 191.389-29.26 242.149-74.48v29.147c-13.274 58.356-122.786 107.155-242.15 107.155-119.298 0-224.87-48.766-238.248-107.077v-29.225z m0 105.675c49.517 45.858 136.699 75.828 238.25 75.828 101.54 0 192.65-29.97 242.149-75.88v22.74C513.973 717.483 404.46 766.28 285.097 766.28c-119.298 0-224.871-48.747-238.248-107.057v-22.783z m0 99.223c49.517 45.868 136.699 75.83 238.25 75.83 101.54 0 192.65-29.962 242.149-75.881v22.74c-13.274 58.361-122.786 107.153-242.15 107.153-119.298 0-224.87-48.74-238.248-107.073v-22.769z m238.25 229.054C161.26 964.718 52.477 912.162 46 850.939h0.849v-16.06c49.516 45.845 136.698 75.817 238.249 75.817 101.54 0 192.65-29.971 242.149-75.862v16.105h0.835c-6.474 61.222-119.158 113.779-242.984 113.779z m286.709-565.66c-9.432-25.656-36.21-48.925-62.547-68.541 27.287 4.977 56.227 7.941 86.65 7.941 100.603 0 183.556-29.257 234.336-74.48v29.15c-13.288 58.356-114.98 107.153-234.336 107.153-10.79 0.001-13.613-0.471-24.103-1.224z m55.575 390.395c-10.348 0.77-20.827 1.307-31.474 1.307-9.298 0-10.644-0.388-19.718-0.988v-47.6c9.051 0.581 10.376 0.969 19.718 0.969 10.726 0 21.152-0.535 31.474-1.293v47.605z m0-92.841c-10.348 0.78-20.827 1.327-31.474 1.327-9.298 0-10.644-0.41-19.718-0.983v-54.017c9.051 0.583 10.376 0.983 19.718 0.983 9.936 0 19.61-0.467 29.177-1.108 0.248 6.296 1.038 12.478 2.298 18.569l-0.001 35.229z m6.731-99.658c-12.518 1.12-25.248 1.77-38.204 1.77-9.298 0-10.643-0.39-19.717-0.99v-53.987c9.05 0.56 10.375 0.961 19.717 0.961 30.66 0 59.778-3.027 87.194-8.112-22.676 17.615-39.468 38.022-48.99 60.358z m280.74 380.122c-128.841 0-241.972-56.024-243.248-120.166l0.404-11.98h0.682c50.164 46.75 138.837 77.326 242.162 77.326 103.288 0 191.935-30.563 242.117-77.326h0.77l0.377 10.87c-0.002 64.601-113.667 121.276-243.264 121.276zM262.454 471.49" p-id="8190"></path></svg>