<?xml version="1.0" standalone="no"?><!DOCTYPE svg PUBLIC "-//W3C//DTD SVG 1.1//EN" "http://www.w3.org/Graphics/SVG/1.1/DTD/svg11.dtd"><svg t="1589960373639" class="icon" viewBox="0 0 1024 1024" version="1.1" xmlns="http://www.w3.org/2000/svg" p-id="3107" xmlns:xlink="http://www.w3.org/1999/xlink" width="200" height="200"><defs><style type="text/css"></style></defs><path d="M844.938811 567.613622c-17.251919 0-31.231305 13.978363-31.231305 31.231305L813.707506 825.381383c0 39.028898-26.849508 71.997778-58.629305 71.997778L269.838681 897.379161c-31.779797 0-58.629305-32.969902-58.629305-71.997778L211.209376 598.844927c0-17.251919-13.983479-31.231305-31.231305-31.231305s-31.231305 13.978363-31.231305 31.231305L148.746766 825.381383c0 74.143651 54.324256 134.460388 121.090892 134.460388l485.23952 0c66.772776 0 121.090892-60.316737 121.090892-134.460388L876.16807 598.844927C876.170117 581.591985 862.190731 567.613622 844.938811 567.613622z" p-id="3108"></path><path d="M772.71693 273.572726 252.199952 273.572726c-17.246803 0-31.231305 13.978363-31.231305 31.231305s13.983479 31.231305 31.231305 31.231305l520.516977 0c17.251919 0 31.231305-13.978363 31.231305-31.231305S789.968849 273.572726 772.71693 273.572726z" p-id="3109"></path><path d="M950.22474 283.585777c-0.010233-0.030699-0.020466-0.061398-0.040932-0.101307l-1.454118-3.965312c-1.13894-3.110851-2.734274-5.937223-4.656043-8.417717l-67.443042-130.698714c-23.880897-48.859801-65.064878-75.820849-116.079762-75.93239L266.48633 64.470337c-54.862515 0-87.75567 21.593807-113.517403 74.53967l0.188288 0.091074c-3.035126 4.971222-6.577812 11.42726-11.192923 19.824511-7.045463 12.840446-16.458857 30.001291-25.934672 47.344285-38.962384 71.296813-39.928385 73.92978-41.057091 76.999698-10.166547 27.702945-10.166547 43.75555-10.166547 62.380746 0.071631 72.160483 39.383986 138.109498 102.700033 172.502819 0.467651 0.274246 0.945535 0.548492 1.433652 0.813528 26.75741 14.263865 57.836243 21.50171 92.473111 21.50171 46.617737-0.14224 91.034343-16.642029 125.981273-46.083571 34.753525 29.116131 78.94705 45.50438 125.630279 45.788859 46.048779-0.366344 89.946568-16.794501 124.542504-45.911656 35.012422 29.421077 79.57229 45.819558 126.479623 45.819558 35.246759-0.183172 66.813708-7.777127 93.78499-22.558785 63.11241-34.494629 102.304014-100.616582 102.263082-172.400488C960.177416 326.833767 960.258257 311.034942 950.22474 283.585777zM897.633964 345.001545c0.020466 49.072649-26.707268 94.181009-69.791529 117.726262-17.791202 9.759271-39.364543 14.771425-63.956637 14.893198-39.750329 0-77.081563-17.303085-102.425787-47.477314-5.92699-7.065929-14.680351-11.142781-23.911596-11.142781l-0.010233 0c-9.231245 0-17.984606 4.087085-23.921829 11.162224-25.085328 29.909194-61.933561 47.242977-100.647281 47.547923-39.460734-0.243547-76.547397-17.537422-101.740172-47.446615-5.932106-7.045463-14.675234-11.112082-23.886013-11.112082-0.010233 0-0.020466 0-0.025583 0-9.221012 0.010233-17.969257 4.087085-23.896246 11.151991-25.340131 30.193673-62.594617 47.578622-102.105492 47.700395-23.672142 0-44.48312-4.564969-61.877279-13.57211-0.396019-0.233314-0.793062-0.457418-1.199315-0.681522-43.73099-23.311939-70.920236-68.592214-70.971401-118.132514 0-15.809057 0-23.209608 5.92699-39.688931 7.03523-14.161534 71.052243-130.708947 75.027787-137.865951 0.320295-0.558725 0.620124-1.13894 0.904603-1.728364 16.408715-33.711799 28.714995-39.404452 57.358359-39.404452l493.992881 0c27.053146 0.061398 46.724161 13.510712 60.143799 41.132816 0.11154 0.224104 0.224104 0.447185 0.335644 0.671289l71.225181 138.028657C897.735271 322.45197 897.704572 329.670371 897.633964 345.001545z" p-id="3110"></path><path d="M390.58165 586.848709c-17.246803 0-31.231305 13.978363-31.231305 31.231305l0 30.468942c0 17.251919 13.983479 31.231305 31.231305 31.231305 17.246803 0 31.231305-13.978363 31.231305-31.231305l0-30.468942C421.812955 600.827071 407.829476 586.848709 390.58165 586.848709z" p-id="3111"></path><path d="M634.335233 586.848709c-17.251919 0-31.231305 13.978363-31.231305 31.231305l0 30.468942c0 17.251919 13.978363 31.231305 31.231305 31.231305 17.251919 0 31.231305-13.978363 31.231305-31.231305l0-30.468942C665.566538 600.827071 651.587152 586.848709 634.335233 586.848709z" p-id="3112"></path><path d="M589.479629 728.293161c-14.267958-9.404184-33.56956-5.418406-43.155892 8.753361-0.132006 0.193405-13.613042 19.75288-34.174334 19.75288-19.992333 0-32.425504-18.10638-33.264615-19.367093-9.174963-14.426571-28.288277-18.807345-42.830481-9.759271-14.654768 9.099239-19.153222 28.353768-10.04989 43.00342 11.208273 18.044982 41.971927 48.584532 86.144986 48.584532 43.959188 0 75.098395-30.306236 86.571704-48.219211C607.941096 756.646929 603.752704 737.686089 589.479629 728.293161z" p-id="3113"></path></svg>