<?xml version="1.0" standalone="no"?><!DOCTYPE svg PUBLIC "-//W3C//DTD SVG 1.1//EN" "http://www.w3.org/Graphics/SVG/1.1/DTD/svg11.dtd"><svg t="1578208051577" class="icon" viewBox="0 0 1024 1024" version="1.1" xmlns="http://www.w3.org/2000/svg" p-id="1366" xmlns:xlink="http://www.w3.org/1999/xlink" width="200" height="200"><defs><style type="text/css"></style></defs><path d="M832 469.76a21.333333 21.333333 0 0 1-21.333333-21.333333V263.168A49.92 49.92 0 0 0 760.789333 213.333333h-78.592v63.530667c0 11.818667-9.514667 21.333333-21.333333 21.333333h-298.666667a21.333333 21.333333 0 0 1-21.333333-21.333333V213.333333H263.168A49.92 49.92 0 0 0 213.333333 263.168v497.621333A49.92 49.92 0 0 0 263.168 810.666667h497.621333A49.92 49.92 0 0 0 810.666667 760.789333V576.426667a21.333333 21.333333 0 1 1 42.666666 0v184.362666A92.629333 92.629333 0 0 1 760.789333 853.333333H263.168A92.629333 92.629333 0 0 1 170.666667 760.789333V263.168C170.666667 212.181333 212.181333 170.666667 263.168 170.666667h497.621333C811.818667 170.666667 853.333333 212.181333 853.333333 263.168v185.258667a21.333333 21.333333 0 0 1-21.333333 21.333333zM383.530667 255.530667h256V213.333333h-256v42.197334z" p-id="1367"></path></svg>