<?xml version="1.0" standalone="no"?><!DOCTYPE svg PUBLIC "-//W3C//DTD SVG 1.1//EN" "http://www.w3.org/Graphics/SVG/1.1/DTD/svg11.dtd"><svg t="1589963992360" class="icon" viewBox="0 0 1024 1024" version="1.1" xmlns="http://www.w3.org/2000/svg" p-id="8966" xmlns:xlink="http://www.w3.org/1999/xlink" width="200" height="200"><defs><style type="text/css"></style></defs><path d="M526.9679 897.252271 266.177292 897.252271c-41.827641 0-75.857688-34.864042-75.857688-77.708849L190.319603 242.154155c0-42.844807 34.030048-77.708849 75.857688-77.708849 17.253966 0 31.234375-13.980409 31.234375-31.234375s-13.980409-31.233352-31.234375-31.233352c-76.275197 0-138.325415 62.884213-138.325415 140.176576l0 577.389266c0 77.29134 62.051241 140.176576 138.325415 140.176576l260.790608 0c17.253966 0 31.233352-13.980409 31.233352-31.234375C558.201252 911.231657 544.221866 897.252271 526.9679 897.252271z" p-id="8967"></path><path d="M758.791779 101.977579c-17.253966 0-31.234375 13.980409-31.234375 31.233352s13.980409 31.234375 31.234375 31.234375c41.818431 0 75.847455 34.864042 75.847455 77.708849l0 285.517779c0 17.253966 13.980409 31.233352 31.234375 31.233352s31.233352-13.980409 31.233352-31.233352L897.106961 242.154155C897.106961 164.862815 835.056744 101.977579 758.791779 101.977579z" p-id="8968"></path><path d="M390.588813 331.778382c-17.253966 0-31.234375 13.980409-31.234375 31.234375l0 30.470989c0 17.253966 13.980409 31.234375 31.234375 31.234375s31.233352-13.980409 31.233352-31.234375l0-30.470989C421.823188 345.758792 407.842779 331.778382 390.588813 331.778382z" p-id="8969"></path><path d="M634.370025 331.778382c-17.253966 0-31.234375 13.980409-31.234375 31.234375l0 30.470989c0 17.253966 13.980409 31.234375 31.234375 31.234375s31.233352-13.980409 31.233352-31.234375l0-30.470989C665.603377 345.758792 651.623991 331.778382 634.370025 331.778382z" p-id="8970"></path><path d="M589.504188 462.814788c-14.304797-9.394974-33.593096-5.398964-43.159986 8.764618-0.132006 0.193405-13.614066 19.754926-34.172287 19.754926-19.989263 0-32.423457-18.098193-33.267685-19.36914-9.160637-14.427594-28.264741-18.809391-42.834574-9.770528-14.650675 9.109472-19.155269 28.367071-10.055007 43.017746 11.214413 18.047028 41.970904 48.589648 86.157265 48.589648 43.963281 0 75.105558-30.318516 86.574774-48.223305C607.968725 491.180835 603.77931 472.218972 589.504188 462.814788z" p-id="8971"></path><path d="M418.777829 231.051283l187.403181 0c45.925982 0 83.289961-37.365003 83.289961-83.289961S652.105968 64.47136 606.181009 64.47136L418.777829 64.47136c-45.925982 0-83.289961 37.365003-83.289961 83.289961S372.851846 231.051283 418.777829 231.051283zM418.777829 126.939087l187.403181 0c11.286044 0 20.822235 9.537214 20.822235 20.822235s-9.537214 20.822235-20.822235 20.822235L418.777829 168.583556c-11.286044 0-20.822235-9.537214-20.822235-20.822235S407.491785 126.939087 418.777829 126.939087z" p-id="8972"></path><path d="M832.055386 601.496313c-45.407166-26.536376-103.136985-20.547988-145.036257 13.756305-41.940205-34.304294-99.639325-40.292682-145.036257-13.756305-35.097356 20.527522-58.258868 55.249325-63.545268 95.247294-5.327332 40.302915 7.80885 79.833233 36.042891 108.454084l138.508587 140.40989c9.069563 9.17087 21.137413 14.223956 34.009582 14.234189 0 0 0.010233 0 0.020466 0 12.861936 0 24.940019-5.053086 34.040281-14.254655l138.488121-140.389424c28.234041-28.620851 41.370223-68.15117 36.042891-108.454084C890.304022 656.744615 867.152742 622.034069 832.055386 601.496313zM815.075667 761.315252l-128.056538 129.836067-128.066771-129.836067c-14.5903-14.783705-21.37175-35.341926-18.585287-56.387241 2.785439-21.046339 14.559601-38.625716 33.155121-49.504484 8.997931-5.266957 19.256576-7.80885 29.708626-7.80885 17.915022 0 36.439934 7.462972 50.27708 21.503756l11.275811 11.428284c5.876847 5.947456 13.878079 9.292644 22.23542 9.292644 0 0 0 0 0.010233 0 8.357342 0 16.368806-3.355421 22.23542-9.302877l11.255345-11.428284c21.910009-22.205745 55.533804-27.990494 79.995939-13.684674 18.59552 10.878768 30.369681 28.458145 33.144888 49.504484C836.447417 725.974349 829.665966 746.532571 815.075667 761.315252z" p-id="8973"></path></svg>