<?xml version="1.0" standalone="no"?><!DOCTYPE svg PUBLIC "-//W3C//DTD SVG 1.1//EN" "http://www.w3.org/Graphics/SVG/1.1/DTD/svg11.dtd"><svg t="1589964164324" class="icon" viewBox="0 0 1024 1024" version="1.1" xmlns="http://www.w3.org/2000/svg" p-id="9112" xmlns:xlink="http://www.w3.org/1999/xlink" width="200" height="200"><defs><style type="text/css"></style></defs><path d="M516.556783 897.364835l-250.41326 0c-41.833781 0-75.867922-34.868135-75.867922-77.719082L190.275601 242.178715c0-42.850947 34.034141-77.719082 75.867922-77.719082 17.256012 0 31.238468-13.981433 31.238468-31.238468 0-17.256012-13.981433-31.238468-31.238468-31.238468-76.28543 0-138.344858 62.893422-138.344858 140.194996l0 577.468061c0 77.302597 62.059428 140.194996 138.344858 140.194996l250.41326 0c17.256012 0 31.238468-13.981433 31.238468-31.238468C547.795251 911.347291 533.812795 897.364835 516.556783 897.364835z" p-id="9113"></path><path d="M758.825548 101.982696c-17.256012 0-31.238468 13.981433-31.238468 31.238468 0 17.256012 13.981433 31.238468 31.238468 31.238468 41.823548 0 75.857688 34.868135 75.857688 77.719082l0 337.619414c0 17.256012 13.981433 31.238468 31.238468 31.238468 17.256012 0 31.238468-13.981433 31.238468-31.238468L897.160173 242.178715C897.15915 164.876118 835.100746 101.982696 758.825548 101.982696z" p-id="9114"></path><path d="M390.57244 331.815221c-17.256012 0-31.238468 13.981433-31.238468 31.238468l0 30.475082c0 17.256012 13.982456 31.238468 31.238468 31.238468 17.256012 0 31.238468-13.982456 31.238468-31.238468l0-30.475082C421.810908 345.796654 407.828452 331.815221 390.57244 331.815221z" p-id="9115"></path><path d="M634.386398 331.815221c-17.256012 0-31.238468 13.981433-31.238468 31.238468l0 30.475082c0 17.256012 13.981433 31.238468 31.238468 31.238468 17.256012 0 31.238468-13.982456 31.238468-31.238468l0-30.475082C665.623843 345.796654 651.64241 331.815221 634.386398 331.815221z" p-id="9116"></path><path d="M589.515445 473.281163c-14.306844-9.395998-33.597189-5.389754-43.166125 8.765641-0.132006 0.193405-13.616112 19.757996-34.17638 19.757996-19.99131 0-32.42755-18.10024-33.271778-19.371186-9.171893-14.419408-28.258601-18.812461-42.840714-9.772574-14.652721 9.111518-19.157315 28.370141-10.057053 43.023886 11.216459 18.049075 41.97602 48.595788 86.169545 48.595788 43.969421 0 75.115791-30.322609 86.586031-48.229444C607.981005 501.652328 603.791589 482.687394 589.515445 473.281163z" p-id="9117"></path><path d="M418.764526 231.073796l187.428763 0c45.932122 0 83.301218-37.370119 83.301218-83.301218S652.125411 64.47136 606.193289 64.47136l-187.428763 0c-45.932122 0-83.301218 37.370119-83.301218 83.301218S372.833427 231.073796 418.764526 231.073796zM418.764526 126.947274l187.428763 0c11.287067 0 20.825304 9.538237 20.825304 20.825304 0 11.287067-9.538237 20.825304-20.825304 20.825304l-187.428763 0c-11.287067 0-20.825304-9.538237-20.825304-20.825304C397.939221 136.485511 407.477458 126.947274 418.764526 126.947274z" p-id="9118"></path><path d="M821.552172 840.440357c19.180851-27.432793 30.527271-60.725036 30.527271-96.662527 0-93.296873-75.908854-169.20675-169.20675-169.20675s-169.20675 75.908854-169.20675 169.20675 75.908854 169.20675 169.20675 169.20675c34.831296 0 67.227124-10.597359 94.16566-28.711925l66.417689 66.417689c6.100952 6.100952 14.093996 9.151427 22.086018 9.151427s15.985066-3.050476 22.086018-9.151427c12.201903-12.192693 12.201903-31.980365 0-44.173059L821.552172 840.440357zM576.143902 743.777831c0-58.856479 47.874357-106.729813 106.729813-106.729813 58.856479 0 106.729813 47.874357 106.729813 106.729813 0 58.856479-47.874357 106.729813-106.729813 106.729813C624.017236 850.507644 576.143902 802.63431 576.143902 743.777831z" p-id="9119"></path></svg>