<?xml version="1.0" standalone="no"?><!DOCTYPE svg PUBLIC "-//W3C//DTD SVG 1.1//EN" "http://www.w3.org/Graphics/SVG/1.1/DTD/svg11.dtd"><svg t="1589962285584" class="icon" viewBox="0 0 1024 1024" version="1.1" xmlns="http://www.w3.org/2000/svg" p-id="3061" xmlns:xlink="http://www.w3.org/1999/xlink" width="200" height="200"><defs><style type="text/css"></style></defs><path d="M938.666667 539.211852c-7.300741 0-14.601481-2.74963-20.100741-8.343704L512 124.302222 105.434074 530.868148c-11.093333 11.093333-29.108148 11.093333-40.201481 0s-11.093333-29.108148 0-40.201481l426.666666-426.666667c11.093333-11.093333 29.108148-11.093333 40.201482 0l426.666666 426.666667c11.093333 11.093333 11.093333 29.108148 0 40.201481-5.499259 5.594074-12.8 8.343704-20.10074 8.343704z" p-id="3062"></path><path d="M787.152593 967.205926H231.158519c-41.813333 0-75.851852-34.038519-75.851852-75.851852V532.859259c0-15.739259 12.705185-28.444444 28.444444-28.444444s28.444444 12.705185 28.444445 28.444444v358.494815c0 10.42963 8.533333 18.962963 18.962963 18.962963h555.994074c15.739259 0 28.444444 12.705185 28.444444 28.444444s-12.705185 28.444444-28.444444 28.444445z" p-id="3063"></path><path d="M404.48 661.143704H291.934815c-15.739259 0-28.444444-12.705185-28.444445-28.444445V520.154074c0-15.739259 12.705185-28.444444 28.444445-28.444444h112.545185c15.739259 0 28.444444 12.705185 28.444444 28.444444v112.545185c0 15.644444-12.705185 28.444444-28.444444 28.444445z m-84.100741-56.888889h55.656297v-55.656296h-55.656297v55.656296zM404.48 862.245926H291.934815c-15.739259 0-28.444444-12.705185-28.444445-28.444445V721.161481c0-15.739259 12.705185-28.444444 28.444445-28.444444h112.545185c15.739259 0 28.444444 12.705185 28.444444 28.444444v112.545186c0 15.739259-12.705185 28.539259-28.444444 28.539259z m-84.100741-56.888889h55.656297v-55.656296h-55.656297v55.656296zM609.374815 862.245926H496.82963c-15.739259 0-28.444444-12.705185-28.444445-28.444445V721.161481c0-15.739259 12.705185-28.444444 28.444445-28.444444h112.545185c15.739259 0 28.444444 12.705185 28.444444 28.444444v112.545186c0 15.739259-12.705185 28.539259-28.444444 28.539259z m-84.100741-56.888889h55.656296v-55.656296H525.274074v55.656296zM842.05037 855.893333c-15.739259 0-28.444444-12.705185-28.444444-28.444444V532.764444c0-15.739259 12.705185-28.444444 28.444444-28.444444s28.444444 12.705185 28.444445 28.444444v294.684445c0 15.739259-12.705185 28.444444-28.444445 28.444444z" p-id="3064"></path></svg>