<?xml version="1.0" standalone="no"?><!DOCTYPE svg PUBLIC "-//W3C//DTD SVG 1.1//EN" "http://www.w3.org/Graphics/SVG/1.1/DTD/svg11.dtd"><svg t="1589964960783" class="icon" viewBox="0 0 1024 1024" version="1.1" xmlns="http://www.w3.org/2000/svg" p-id="9790" xmlns:xlink="http://www.w3.org/1999/xlink" width="200" height="200"><defs><style type="text/css"></style></defs><path d="M502.752 518.256 442.752 564.464 396.544 504.48 347.312 542.4 393.52 602.384 333.52 648.592 371.44 697.824 431.44 651.616 477.648 711.616 526.864 673.696 480.672 613.696 540.656 567.488Z" p-id="9791"></path><path d="M922.656 70.768c-20.336-12.128-43.824-18.544-67.968-18.544-35.344 0-69.136 13.344-95.152 37.6-45.024 41.952-69.824 98.768-89.888 153.92l-2.304 6.304-94.128-17.296c-5.568-1.04-11.552-1.552-17.776-1.552-26.32 0-54.4 9.024-73.28 23.568L82.8 562.368c-18.88 14.56-30.976 35.584-34.048 59.216C45.696 645.232 52.016 668.64 66.56 687.52l199.104 258.496c14.544 18.88 35.568 30.96 59.216 34.032 3.84 0.496 7.776 0.752 11.648 0.752 19.76 0 38.544-6.416 54.272-18.544l399.36-307.632c24.032-18.512 42.24-52.576 44.272-82.848l14.016-209.984 2.784-2.176c45.12-35.28 107.04-89.584 123.792-153.696C989.536 150.512 969.456 98.72 922.656 70.768zM741.84 565.632l-0.096 0.464c-0.72 3.824-4.736 11.568-7.392 14.288l-0.384 0.4-396.976 305.76L142.272 633.712l396.528-305.44 0.4-0.24c3.12-1.856 10.784-4.032 16-4.032l1.296 0.048 81.2 14.912-2.432 8.432c-3.376 11.648-6.32 22.56-9.008 33.36-0.992 3.968-1.552 8.32-2.432 14.88l-0.384 2.864-2.144 1.952c-9.76 8.944-16.064 20.512-17.744 32.576-1.856 13.344 1.952 26.608 10.976 38.352 10.336 13.408 24.608 20.784 40.208 20.784 18.912 0 37.952-10.848 48.48-27.632 8.704-13.824 10.4-29.568 4.832-44.32l-0.736-1.904 1.36-9.968c0.48-3.488 0.912-6.8 1.152-8.128 3.088-12.32 6.624-25.008 10.768-38.832l2.048-6.8 32.864 6.032L741.84 565.632zM892.016 184.224c-6.72 25.648-32.608 57.424-76.96 94.432l-4.128 3.456-4.736-2.576c-7.408-4.016-15.248-6.8-23.312-8.288l-29.968-5.504 3.424-8.928c13.008-33.888 31.776-76.352 61.696-104.24 9.984-9.312 22.912-14.416 36.384-14.416 8.848 0 17.472 2.224 24.256 6.272C892.48 152.72 896.864 165.728 892.016 184.224z" p-id="9792"></path></svg>