<?xml version="1.0" standalone="no"?><!DOCTYPE svg PUBLIC "-//W3C//DTD SVG 1.1//EN" "http://www.w3.org/Graphics/SVG/1.1/DTD/svg11.dtd"><svg t="1589964440763" class="icon" viewBox="0 0 1024 1024" version="1.1" xmlns="http://www.w3.org/2000/svg" p-id="9258" xmlns:xlink="http://www.w3.org/1999/xlink" width="200" height="200"><defs><style type="text/css"></style></defs><path d="M899.387911 635.265418c-12.373819-12.017708-32.149211-11.728112-44.165896 0.650823L626.657366 871.281783 515.463891 756.784052c-12.007475-12.368702-31.7931-12.663414-44.165896-0.650823-12.378935 12.017708-12.668531 31.7931-0.650823 44.165896l133.601834 137.572262c0.10847 0.11154 0.240477 0.183172 0.349971 0.292666 0.112564 0.112564 0.187265 0.246617 0.300852 0.358157 0.785899 0.763386 1.675152 1.338485 2.517333 2.003634 0.690732 0.544399 1.336438 1.162476 2.060939 1.64036 1.099031 0.726547 2.267647 1.27197 3.429099 1.843998 0.667196 0.329505 1.299599 0.743944 1.984191 1.022283 1.356904 0.550539 2.76088 0.907673 4.166903 1.25969 0.545422 0.137123 1.069355 0.363274 1.620917 0.470721 1.972934 0.382717 3.972475 0.584308 5.974062 0.584308 0.002047 0 0.00307-0.001023 0.005117-0.001023 0.002047 0 0.00307 0.001023 0.005117 0.001023 1.99954 0 3.997034-0.201591 5.967922-0.584308 0.604774-0.11768 1.179872-0.363274 1.777483-0.51677 1.348718-0.345877 2.698458-0.681522 4.002151-1.210571 0.734734-0.297782 1.413186-0.738827 2.127454-1.094938 1.112334-0.554632 2.236947-1.073448 3.290953-1.769296 0.737804-0.487094 1.39579-1.11438 2.097778-1.670036 0.831948-0.656963 1.710968-1.224898 2.487657-1.979074 0.11461-0.11154 0.188288-0.245593 0.300852-0.358157 0.109494-0.109494 0.2415-0.182149 0.349971-0.292666l250.971985-258.440074C912.056442 667.058518 911.76173 647.283126 899.387911 635.265418z" p-id="9259"></path><path d="M504.69564 377.88242c17.248849 0 31.233352-13.984503 31.233352-31.233352l0-52.055586 52.055586 0c17.248849 0 31.233352-13.985526 31.233352-31.233352s-13.985526-31.233352-31.233352-31.233352l-52.055586 0 0-52.055586c0-17.248849-13.984503-31.233352-31.233352-31.233352s-31.233352 13.984503-31.233352 31.233352l0 52.055586-52.055586 0c-17.248849 0-31.233352 13.984503-31.233352 31.233352s13.984503 31.233352 31.233352 31.233352l52.055586 0 0 52.055586C473.462289 363.897917 487.446791 377.88242 504.69564 377.88242z" p-id="9260"></path><path d="M664.754033 697.803753c6.634094 0 13.32447-2.104941 18.987447-6.450922 85.282339-65.420989 125.006062-140.780327 125.006062-237.160421 0-17.248849-13.979386-31.233352-31.233352-31.233352-17.253966 0-31.233352 13.984503-31.233352 31.233352 0 76.390831-31.010271 134.24754-100.553137 187.595562-13.68979 10.498098-16.272615 30.104645-5.774517 43.795459C646.102231 693.600011 655.375431 697.803753 664.754033 697.803753z" p-id="9261"></path><path d="M360.955912 640.105656c-0.201591-0.167822-0.349971-0.375553-0.556679-0.539282-68.481697-54.155411-97.702206-109.597117-97.702206-185.373964 0-17.248849-13.985526-31.233352-31.233352-31.233352s-31.233352 13.984503-31.233352 31.233352c0 83.265402 30.079062 151.021575 94.02342 210.80824-97.321536 76.280314-151.346987 154.463977-177.750333 255.892041-4.345981 16.694217 5.668093 33.754778 22.357194 38.096666 2.638083 0.681522 5.287423 1.017166 7.889691 1.017166 13.878079 0 26.546609-9.323343 30.206976-23.37436 25.164123-96.690156 80.631412-169.873945 185.470155-244.734934 14.040784-10.025331 17.294898-29.53057 7.269567-43.566238C367.273804 644.935662 364.275517 642.204457 360.955912 640.105656z" p-id="9262"></path><path d="M224.445842 389.366985c1.805112 0 3.634784-0.157589 5.474688-0.483001 16.98893-3.004427 28.321022-19.210527 25.316595-36.195364-0.152473-0.868787-14.686491-87.315648 39.585577-152.035672 40.928155-48.802496 111.345947-73.54911 209.296817-73.54911 97.712439 0 168.175257 24.635073 209.43394 73.219605 54.485939 64.155159 40.86164 151.750169 40.729633 152.513556-2.918469 16.999163 8.489348 33.150004 25.499767 36.07359 16.98893 2.922563 33.134655-8.489348 36.07359-25.489534 0.803295-4.702092 18.951631-116.160603-54.140061-202.891943-53.622268-63.631226-140.29221-95.891977-257.595846-95.891977-117.28931 0-203.806779 32.255635-257.158894 95.876628-72.791863 86.797855-54.069453 198.351534-53.235458 203.054649C196.405205 378.716414 209.582319 389.366985 224.445842 389.366985z" p-id="9263"></path><path d="M393.641335 367.0497c-17.248849 0-31.233352 13.985526-31.233352 31.233352l0 33.31271c0 17.248849 13.985526 31.233352 31.233352 31.233352 17.248849 0 31.233352-13.985526 31.233352-31.233352l0-33.31271C424.87571 381.034203 410.890184 367.0497 393.641335 367.0497z" p-id="9264"></path><path d="M615.749946 367.0497c-17.248849 0-31.233352 13.985526-31.233352 31.233352l0 33.31271c0 17.248849 13.984503 31.233352 31.233352 31.233352s31.233352-13.985526 31.233352-31.233352l0-33.31271C646.983297 381.034203 632.997772 367.0497 615.749946 367.0497z" p-id="9265"></path><path d="M590.94705 541.864168c9.302877-14.528901 5.068436-33.846876-9.455349-43.149752-14.539134-9.302877-33.841759-5.068436-43.149752 9.455349-0.121773 0.198521-13.379729 19.449981-33.968649 19.449981-20.008706 0-32.443923-18.127869-33.276894-19.373233-9.165754-14.417361-28.28009-18.799158-42.829458-9.760295-14.655791 9.104355-19.155269 28.360931-10.04989 43.012629 11.209296 18.047028 41.974997 48.588625 86.157265 48.588625C548.331463 590.087473 579.473741 559.774073 590.94705 541.864168z" p-id="9266"></path></svg>