<?xml version="1.0" standalone="no"?><!DOCTYPE svg PUBLIC "-//W3C//DTD SVG 1.1//EN" "http://www.w3.org/Graphics/SVG/1.1/DTD/svg11.dtd"><svg t="1589962640182" class="icon" viewBox="0 0 1024 1024" version="1.1" xmlns="http://www.w3.org/2000/svg" p-id="4300" xmlns:xlink="http://www.w3.org/1999/xlink" width="200" height="200"><defs><style type="text/css"></style></defs><path d="M389.216559 518.330172c-17.130146 0-31.010271 13.880125-31.010271 31.010271l0 30.253024c0 17.130146 13.880125 31.010271 31.010271 31.010271s31.010271-13.880125 31.010271-31.010271l0-30.253024C420.22683 532.210297 406.346705 518.330172 389.216559 518.330172z" p-id="4301"></path><path d="M631.241778 518.330172c-17.130146 0-31.010271 13.880125-31.010271 31.010271l0 30.253024c0 17.130146 13.880125 31.010271 31.010271 31.010271 17.130146 0 31.010271-13.880125 31.010271-31.010271l0-30.253024C662.252049 532.210297 648.372947 518.330172 631.241778 518.330172z" p-id="4302"></path><path d="M586.703399 658.764622c-14.202467-9.337669-33.352619-5.349845-42.850947 8.701173-0.130983 0.191358-13.516852 19.61371-33.927717 19.61371-19.846 0-32.191166-17.968234-33.029254-19.22997-9.095145-14.314007-28.063149-18.665105-42.528606-9.700943-14.546298 9.045003-19.018146 28.163433-9.983375 42.709731 11.134595 17.918092 41.670052 48.241724 85.541235 48.241724 43.648103 0 74.568323-30.101575 85.954651-47.87845C605.034906 686.929078 600.87619 668.102291 586.703399 658.764622z" p-id="4303"></path><path d="M922.749992 780.877797c-17.130146 0-31.010271 13.880125-31.010271 31.010271l0 9.347902c0 39.893592-32.464389 72.356958-72.356958 72.356958L199.176318 893.592928c-39.893592 0-72.356958-32.464389-72.356958-72.356958L126.81936 373.791242c20.913309 12.465916 45.710065 19.790742 72.356958 19.790742l630.54286 0c37.673018 0 62.020542 23.12672 62.020542 58.921971l0 3.765767c0 17.130146 13.880125 31.010271 31.010271 31.010271s31.010271-13.880125 31.010271-31.010271l0-186.374758c0-62.576197-38.358633-125.71726-124.041084-125.71726l-3.638877 0c-23.451108-45.717228-74.085322-77.525678-132.808772-77.525678L345.960383 66.652026c-58.722426 0-109.357664 31.80845-132.808772 77.525678l-13.976316 0c-69.956282 0-127.536698 49.886177-133.756353 113.331161-0.402159 1.9934-0.621147 4.054339-0.621147 6.167466l0 557.559639c0 74.093509 60.283991 134.378523 134.378523 134.378523l620.206444 0c61.677734 0 113.795742-41.771359 129.522935-98.522897 3.068895-4.814656 4.855588-10.528797 4.855588-16.665565l0-28.53694C953.760263 794.757922 939.880137 780.877797 922.749992 780.877797zM199.176318 206.198246l0 67.189262c0 17.130146 13.880125 31.010271 31.010271 31.010271s31.010271-13.880125 31.010271-31.010271l0-72.356958c0-39.893592 38.026058-72.356958 84.763522-72.356958l347.311147 0c46.737464 0 84.763522 32.464389 84.763522 72.356958l0 72.356958c0 17.130146 13.880125 31.010271 31.010271 31.010271 17.130146 0 31.010271-13.880125 31.010271-31.010271l0-66.61621c46.378284 5.169743 51.684126 45.227064 51.684126 63.123666l0 76.407204c-17.939581-9.44-38.942941-14.739702-62.020542-14.739702L199.176318 331.562465c-39.893592 0-72.356958-28.113291-72.356958-62.676481S159.282726 206.198246 199.176318 206.198246z" p-id="4304"></path><path d="M347.211886 242.437611l348.008019 0c17.130146 0 31.010271-13.880125 31.010271-31.010271s-13.880125-31.010271-31.010271-31.010271L347.211886 180.417069c-17.130146 0-31.010271 13.880125-31.010271 31.010271S330.081741 242.437611 347.211886 242.437611z" p-id="4305"></path><path d="M929.149748 518.78452 812.720016 518.78452c-64.726164 0-117.379361 51.007721-117.379361 113.704668s52.653197 113.704668 117.379361 113.704668l116.429733 0c17.130146 0 31.010271-13.880125 31.010271-31.010271L960.16002 549.794791C960.16002 532.664645 946.280918 518.78452 929.149748 518.78452zM898.139477 684.173314l-85.419462 0c-30.526247 0-55.357795-23.187095-55.357795-51.684126s24.832572-51.684126 55.357795-51.684126l85.419462 0L898.139477 684.173314z" p-id="4306"></path></svg>