<?xml version="1.0" standalone="no"?><!DOCTYPE svg PUBLIC "-//W3C//DTD SVG 1.1//EN" "http://www.w3.org/Graphics/SVG/1.1/DTD/svg11.dtd"><svg t="1589957841265" class="icon" viewBox="0 0 1024 1024" version="1.1" xmlns="http://www.w3.org/2000/svg" p-id="2026" xmlns:xlink="http://www.w3.org/1999/xlink" width="200" height="200"><defs><style type="text/css"></style></defs><path d="M512.50449 417.820014c17.253966 0 31.233352-13.979386 31.233352-31.233352l0-66.449411 67.553559 0c17.253966 0 31.233352-13.979386 31.233352-31.233352 0-17.253966-13.979386-31.233352-31.233352-31.233352L543.737842 257.670547l0-58.485019c0-17.253966-13.979386-31.233352-31.233352-31.233352-17.253966 0-31.233352 13.979386-31.233352 31.233352l0 58.485019-67.613934 0c-17.253966 0-31.233352 13.979386-31.233352 31.233352 0 17.253966 13.979386 31.233352 31.233352 31.233352l67.613934 0 0 66.449411C481.271138 403.840628 495.250524 417.820014 512.50449 417.820014z" p-id="2027"></path><path d="M224.499054 407.073252c17.253966 0 31.233352-13.979386 31.233352-31.233352L255.732405 272.379551c0-67.093071 67.062372-145.441487 256.059863-145.441487 124.446313 0 257.421884 38.208207 257.421884 145.441487l0 103.461373c0 17.253966 13.979386 31.233352 31.233352 31.233352s31.233352-13.979386 31.233352-31.233352L831.680856 272.379551c0-100.512205-84.031858-207.90819-319.889611-207.90819-235.105622 0-318.526567 112.001887-318.526567 207.90819l0 103.461373C193.265702 393.093866 207.246111 407.073252 224.499054 407.073252z" p-id="2028"></path><path d="M374.73473 689.976484c-0.293689-0.25071-0.5137-0.552585-0.818645-0.794086C300.183803 630.883621 262.799358 562.977022 262.799358 487.374136c0-17.253966-13.979386-31.233352-31.233352-31.233352s-31.233352 13.979386-31.233352 31.233352c0 85.327364 38.272675 164.384931 110.834294 230.335992-56.776098 55.507198-103.916744 110.460788-141.355425 198.687178-6.740518 15.880689 0.671289 34.212196 16.551978 40.953737 3.985778 1.687432 8.113795 2.490727 12.190647 2.490727 12.149714 0 23.710005-7.147794 28.763091-19.042705 38.208207-90.061179 87.11201-140.510174 152.039765-201.950502 12.526291-11.855002 13.06455-31.620162 1.209548-44.155662C378.795209 692.823322 376.807948 691.309852 374.73473 689.976484z" p-id="2029"></path><path d="M855.137081 916.397307c-37.505195-88.38091-84.7318-143.361105-141.618415-198.947098 72.241324-65.318658 110.282732-144.210449 110.282732-230.076072 0-17.253966-13.979386-31.233352-31.233352-31.233352-17.253966 0-31.233352 13.979386-31.233352 31.233352 0 96.404654-62.019519 164.199713-114.045429 204.095351-13.694907 10.502192-16.277732 30.104645-5.78475 43.790342 2.092661 2.729158 4.634554 4.845355 7.331989 6.67605 63.286372 60.039421 111.212918 110.316501 148.794861 198.863187 5.053086 11.895935 16.613376 19.042705 28.763091 19.042705 4.076852 0 8.204869-0.803295 12.190647-2.490727C854.466815 950.609503 861.878622 932.277996 855.137081 916.397307z" p-id="2030"></path><path d="M390.589836 404.125107c-17.253966 0-31.233352 13.979386-31.233352 31.233352l0 30.470989c0 17.253966 13.979386 31.233352 31.233352 31.233352 17.253966 0 31.233352-13.979386 31.233352-31.233352L421.823188 435.358459C421.823188 418.104493 407.843802 404.125107 390.589836 404.125107z" p-id="2031"></path><path d="M634.357745 404.125107c-17.253966 0-31.233352 13.979386-31.233352 31.233352l0 30.470989c0 17.253966 13.979386 31.233352 31.233352 31.233352s31.233352-13.979386 31.233352-31.233352L665.591097 435.358459C665.591097 418.104493 651.611711 404.125107 634.357745 404.125107z" p-id="2032"></path><path d="M589.269851 545.184797c-14.539134-9.292644-33.846876-5.083785-43.149752 9.455349-0.121773 0.193405-13.379729 19.449981-33.968649 19.449981-19.98824 0-32.423457-18.09717-33.276894-19.368116-9.181103-14.427594-28.29544-18.829857-42.834574-9.760295-14.650675 9.099239-19.155269 28.355815-10.044774 43.007513 11.214413 18.047028 41.980113 48.588625 86.156242 48.588625 43.953048 0 75.094302-30.308283 86.573751-48.223305C608.0291 573.814858 603.798752 554.487673 589.269851 545.184797z" p-id="2033"></path></svg>