<?xml version="1.0" standalone="no"?><!DOCTYPE svg PUBLIC "-//W3C//DTD SVG 1.1//EN" "http://www.w3.org/Graphics/SVG/1.1/DTD/svg11.dtd"><svg t="1589966018864" class="icon" viewBox="0 0 1024 1024" version="1.1" xmlns="http://www.w3.org/2000/svg" p-id="20749" xmlns:xlink="http://www.w3.org/1999/xlink" width="200" height="200"><defs><style type="text/css"></style></defs><path d="M822.4 432.7m-69.8 0a69.8 69.8 0 1 0 139.6 0 69.8 69.8 0 1 0-139.6 0Z" fill="#2c2c2c" p-id="20750"></path><path d="M647.8 231.8m-69.8 0a69.8 69.8 0 1 0 139.6 0 69.8 69.8 0 1 0-139.6 0Z" fill="#2c2c2c" p-id="20751"></path><path d="M372.3 262.7m-69.8 0a69.8 69.8 0 1 0 139.6 0 69.8 69.8 0 1 0-139.6 0Z" fill="#2c2c2c" p-id="20752"></path><path d="M221 498.4m-69.8 0a69.8 69.8 0 1 0 139.6 0 69.8 69.8 0 1 0-139.6 0Z" fill="#2c2c2c" p-id="20753"></path><path d="M502.4 1020.7h-1.2C155.8 1020.7 0 722.4 0 510.5 0 299.9 158.8 3.3 512 3.3c357.4 0 512 302.1 512 456.2 0 163.9-126.4 256.3-201 285.1-58.1 22.4-141.8 22.2-208.1 19.8l-10.4-0.3c1.3 0.5-13.1 8.3-13.1 34.9 0 6.2 0.8 8.3 0.8 8.4 1 1.4 2.5 2.7 3.9 4.1 16.7 17.6 33 39.2 33 92.6 0 32.3-11.1 60.2-32 80.8-34.9 34-84.7 35.8-94.7 35.8zM512 89.6c-321.6 0-425.7 283.6-425.7 420.9 0 138.3 101.6 423.9 415.7 423.9 18.8 0 40.7-5.4 40.7-30.4 0-23.4-3.3-26.9-9.3-33.2-13.7-14.5-28.4-33.1-28.4-71.9 0-79.1 57.4-121.3 98.9-121.3 2.8 0 7.7 0.2 14.3 0.4 30.9 1.3 124.8 4.8 173.7-14 50.4-19.4 145.7-87.1 145.7-204.5 0.1-94.8-104.7-369.9-425.6-369.9z" fill="#2c2c2c" p-id="20754"></path></svg>