<?xml version="1.0" standalone="no"?><!DOCTYPE svg PUBLIC "-//W3C//DTD SVG 1.1//EN" "http://www.w3.org/Graphics/SVG/1.1/DTD/svg11.dtd"><svg t="1578208257492" class="icon" viewBox="0 0 1024 1024" version="1.1" xmlns="http://www.w3.org/2000/svg" p-id="2143" xmlns:xlink="http://www.w3.org/1999/xlink" width="200" height="200"><defs><style type="text/css"></style></defs><path d="M832 1024H192c-46.933333 0-85.333333-38.4-85.333333-85.333333V277.333333h42.666666v661.333334c0 23.466667 19.2 42.666667 42.666667 42.666666h640c23.466667 0 42.666667-19.2 42.666667-42.666666V277.333333h42.666666v661.333334c0 46.933333-38.4 85.333333-85.333333 85.333333z" p-id="2144"></path><path d="M1002.666667 375.466667c-4.266667 0-8.533333-2.133333-12.8-4.266667L522.666667 44.8c-4.266667-4.266667-12.8-4.266667-17.066667 0L32 360.533333c-10.666667 6.4-23.466667 4.266667-29.866667-6.4-6.4-10.666667-4.266667-23.466667 6.4-29.866666L482.133333 10.666667c19.2-12.8 44.8-12.8 66.133334 0l467.2 326.4c10.666667 6.4 12.8 19.2 4.266666 29.866666-4.266667 6.4-10.666667 8.533333-17.066666 8.533334zM746.666667 682.666667H277.333333c-10.666667 0-21.333333-8.533333-21.333333-21.333334 0-10.666667 8.533333-21.333333 21.333333-21.333333h469.333334c10.666667 0 21.333333 8.533333 21.333333 21.333333s-10.666667 21.333333-21.333333 21.333334zM746.666667 789.333333H277.333333c-10.666667 0-21.333333-10.666667-21.333333-21.333333s8.533333-21.333333 21.333333-21.333333h469.333334c10.666667 0 21.333333 10.666667 21.333333 21.333333s-10.666667 21.333333-21.333333 21.333333zM746.666667 896H277.333333c-10.666667 0-21.333333-10.666667-21.333333-21.333333s8.533333-21.333333 21.333333-21.333334h469.333334c10.666667 0 21.333333 10.666667 21.333333 21.333334s-10.666667 21.333333-21.333333 21.333333z" p-id="2145"></path></svg>